<?xml version="1.0" standalone="no"?>
<!DOCTYPE svg PUBLIC "-//W3C//DTD SVG 20010904//EN"
 "http://www.w3.org/TR/2001/REC-SVG-20010904/DTD/svg10.dtd">
<svg version="1.0" xmlns="http://www.w3.org/2000/svg"
 width="563.000000pt" height="420.000000pt" viewBox="0 0 563.000000 420.000000"
 preserveAspectRatio="xMidYMid meet">

<g transform="translate(0.000000,420.000000) scale(0.100000,-0.100000)"
fill="#000000" stroke="none">
<path d="M2766 2969 c-33 -26 -36 -79 -6 -109 30 -30 83 -27 109 6 28 36 26
60 -8 95 -35 34 -59 36 -95 8z"/>
<path d="M2791 2738 c-4 -13 -11 -59 -14 -103 -16 -203 -67 -392 -122 -450
-27 -29 -40 -35 -73 -35 -70 0 -127 68 -182 215 -17 46 -32 71 -44 73 -16 4
-17 -5 -11 -125 9 -153 -2 -209 -42 -224 -14 -5 -33 -7 -42 -4 -39 12 -131
131 -211 273 -33 58 -52 73 -65 53 -3 -5 15 -56 39 -113 24 -57 83 -203 131
-323 48 -121 91 -224 95 -229 5 -4 37 4 73 18 252 101 752 96 1001 -9 33 -14
41 -14 53 -3 7 8 47 102 87 209 40 107 96 250 124 318 29 68 52 128 52 132 0
5 -6 9 -14 9 -8 0 -39 -42 -69 -92 -80 -136 -142 -216 -182 -235 -34 -16 -36
-16 -62 3 -39 29 -45 63 -37 212 8 166 -4 172 -64 33 -63 -146 -103 -191 -170
-191 -48 0 -91 36 -119 98 -28 63 -67 250 -84 410 -8 76 -15 102 -25 102 -8 0
-18 -10 -23 -22z"/>
<path d="M2273 2646 c-52 -23 -54 -98 -3 -126 33 -18 67 -11 89 16 29 37 27
78 -5 103 -31 24 -38 25 -81 7z"/>
<path d="M3283 2650 c-47 -19 -56 -78 -18 -115 33 -34 77 -33 104 1 28 35 26
69 -4 99 -25 26 -45 30 -82 15z"/>
<path d="M1863 2604 c-20 -20 -24 -31 -19 -57 12 -62 70 -85 120 -46 53 41 18
129 -51 129 -13 0 -35 -12 -50 -26z"/>
<path d="M3672 2620 c-63 -26 -41 -140 28 -140 72 0 108 87 54 129 -29 23 -46
25 -82 11z"/>
<path d="M2555 1736 c-123 -20 -199 -45 -239 -78 -117 -96 71 -189 414 -205
307 -13 590 49 612 135 15 55 -36 91 -178 128 -89 23 -122 27 -314 30 -147 2
-240 -1 -295 -10z m520 -61 c92 -15 181 -40 190 -55 22 -35 -60 -70 -220 -95
-195 -31 -541 -8 -644 42 -96 47 -22 87 219 118 120 16 317 11 455 -10z"/>
</g>
</svg>
